<?xml version="1.0" encoding="utf-8"?>
<svg version="1.1" id="Layer_1" xmlns="http://www.w3.org/2000/svg" xmlns:xlink="http://www.w3.org/1999/xlink" x="0px" y="0px"
	 width="140.4px" height="122.7px" viewBox="0 0 140.4 122.7" enable-background="new 0 0 140.4 122.7" xml:space="preserve">
<g>
	<polygon fill="#FFFFFF" points="51.5,90.2 38,99.8 54.4,111.4 59.5,95.9 	"/>
	<polygon fill="#FFFFFF" points="56.8,113.1 70.2,122.7 83.6,113.1 70.2,103.5 	"/>
	<polygon fill="#FFFFFF" points="63.6,83.6 14.4,48.6 25.9,72 42.2,83.6 	"/>
	<polygon fill="#FFFFFF" points="68.7,68.1 0,19.2 11.5,42.6 64.6,80.5 	"/>
	<polygon fill="#FFFFFF" points="9.7,0 1.6,16.5 26.5,34.2 	"/>
	<polygon fill="#FFFFFF" points="80.9,95.9 86,111.4 102.4,99.8 88.9,90.2 	"/>
	<polygon fill="#FFFFFF" points="98.2,83.6 114.5,72 126,48.6 76.8,83.6 	"/>
	<polygon fill="#FFFFFF" points="71.7,68.1 75.8,80.5 128.9,42.6 140.4,19.2 	"/>
	<polygon fill="#FFFFFF" points="130.7,0 113.9,34.2 138.8,16.5 	"/>
	<path fill="#FFFFFF" d="M62.1,92.5c0-4.4,3.6-7.9,8.1-7.9c4.5,0,8.1,3.6,8.1,7.9c0,4.4-3.6,7.9-8.1,7.9
		C65.7,100.4,62.1,96.9,62.1,92.5z"/>
</g>
<g>
</g>
<g>
</g>
<g>
</g>
<g>
</g>
<g>
</g>
<g>
</g>
<g>
</g>
<g>
</g>
<g>
</g>
<g>
</g>
<g>
</g>
<g>
</g>
<g>
</g>
<g>
</g>
<g>
</g>
</svg>
